<?xml version="1.0" encoding="utf-8"?>
<!-- Generator: Adobe Illustrator 15.1.0, SVG Export Plug-In . SVG Version: 6.00 Build 0)  -->
<!DOCTYPE svg PUBLIC "-//W3C//DTD SVG 1.1//EN" "http://www.w3.org/Graphics/SVG/1.1/DTD/svg11.dtd">
<svg version="1.1" id="Layer_1" xmlns="http://www.w3.org/2000/svg" xmlns:xlink="http://www.w3.org/1999/xlink" x="0px" y="0px"
	 width="200px" height="200px" viewBox="0 0 200 200" enable-background="new 0 0 200 200" xml:space="preserve">
<g>
	<path fill="#FFFFFF" d="M99.999,189.5c-49.902,0-90.5-40.599-90.5-90.5c0-49.902,40.598-90.5,90.5-90.5
		c49.901,0,90.5,40.598,90.5,90.5C190.499,148.901,149.9,189.5,99.999,189.5z"/>
	<path fill="#F5F5F5" d="M99.999,18c44.664,0,81,36.336,81,81c0,44.664-36.336,81-81,81s-81-36.336-81-81
		C18.999,54.336,55.335,18,99.999,18 M99.999-1c-55.229,0-100,44.771-100,100s44.771,100,100,100s100-44.771,100-100
		S155.228-1,99.999-1L99.999-1z"/>
</g>
<g id="Layer_2" display="none">
	
		<line display="inline" fill="none" stroke="#D5C06F" stroke-width="21" stroke-linecap="round" stroke-linejoin="round" stroke-miterlimit="10" x1="154" y1="100.5" x2="56" y2="100.5"/>
	
		<line display="inline" fill="none" stroke="#D5C06F" stroke-width="21" stroke-linecap="round" stroke-linejoin="round" stroke-miterlimit="10" x1="56.513" y1="100.354" x2="88.333" y2="68.534"/>
	
		<line display="inline" fill="none" stroke="#D5C06F" stroke-width="21" stroke-linecap="round" stroke-linejoin="round" stroke-miterlimit="10" x1="56.513" y1="101.061" x2="88.333" y2="132.881"/>
	
		<line display="inline" fill="none" stroke="#DDC025" stroke-width="21" stroke-linecap="round" stroke-linejoin="round" stroke-miterlimit="10" x1="56.513" y1="100.354" x2="88.333" y2="68.534"/>
</g>
<g id="Layer_3">
	<text transform="matrix(1 0 0 1 40.0669 73.0996)" enable-background="new    "><tspan x="0" y="0" fill="#939598" font-family="'OpenSans-Bold'" font-size="32">tillbaks </tspan><tspan x="37.664" y="38.4" fill="#939598" font-family="'OpenSans-Bold'" font-size="32">till</tspan><tspan x="6.914" y="76.8" fill="#939598" font-family="'OpenSans-Bold'" font-size="32">frågan</tspan></text>
</g>
</svg>
