<?xml version="1.0" encoding="utf-8"?>
<!-- Generator: Adobe Illustrator 15.1.0, SVG Export Plug-In . SVG Version: 6.00 Build 0)  -->
<!DOCTYPE svg PUBLIC "-//W3C//DTD SVG 1.1//EN" "http://www.w3.org/Graphics/SVG/1.1/DTD/svg11.dtd">
<svg version="1.1" xmlns="http://www.w3.org/2000/svg" xmlns:xlink="http://www.w3.org/1999/xlink" x="0px" y="0px" width="200px"
	 height="200px" viewBox="0 0 200 200" enable-background="new 0 0 200 200" xml:space="preserve">
<g id="Layer_1">
	<g>
		<path fill="#FFFFFF" d="M99,190.5c-49.902,0-90.5-40.599-90.5-90.5C8.5,50.098,49.098,9.5,99,9.5c49.901,0,90.5,40.598,90.5,90.5
			C189.5,149.901,148.901,190.5,99,190.5z"/>
		<path fill="#F5F5F5" d="M99,19c44.664,0,81,36.336,81,81c0,44.664-36.336,81-81,81c-44.664,0-81-36.336-81-81
			C18,55.336,54.336,19,99,19 M99,0C43.771,0-1,44.771-1,100S43.771,200,99,200s100-44.771,100-100S154.229,0,99,0L99,0z"/>
	</g>
	<g id="Layer_1_1_" display="none">
		
			<line display="inline" fill="none" stroke="#D5C06F" stroke-width="21" stroke-linecap="round" stroke-linejoin="round" stroke-miterlimit="10" x1="99.5" y1="154" x2="99.5" y2="56"/>
		
			<line display="inline" fill="none" stroke="#DDC025" stroke-width="21" stroke-linecap="round" stroke-linejoin="round" stroke-miterlimit="10" x1="99.5" y1="56.5" x2="131.674" y2="88.673"/>
		
			<line display="inline" fill="none" stroke="#D5C06F" stroke-width="21" stroke-linecap="round" stroke-linejoin="round" stroke-miterlimit="10" x1="99.5" y1="56.5" x2="131.674" y2="88.673"/>
		
			<line display="inline" fill="none" stroke="#D5C06F" stroke-width="21" stroke-linecap="round" stroke-linejoin="round" stroke-miterlimit="10" x1="99.5" y1="56.5" x2="67.326" y2="88.673"/>
	</g>
	<g id="Layer_2">
		<text transform="matrix(1 0 0 1 43.6787 90.9741)" enable-background="new    "><tspan x="0" y="0" fill="#939598" font-family="'OpenSans-Bold'" font-size="40">nästa </tspan><tspan x="3.643" y="47.2" fill="#939598" font-family="'OpenSans-Bold'" font-size="40">fråga</tspan></text>
	</g>
</g>
<g id="_x3C_Layer_x3E_">
</g>
</svg>
