<?xml version="1.0" encoding="utf-8"?>
<!-- Generator: Adobe Illustrator 15.1.0, SVG Export Plug-In . SVG Version: 6.00 Build 0)  -->
<!DOCTYPE svg PUBLIC "-//W3C//DTD SVG 1.1//EN" "http://www.w3.org/Graphics/SVG/1.1/DTD/svg11.dtd">
<svg version="1.1" id="Layer_1" xmlns="http://www.w3.org/2000/svg" xmlns:xlink="http://www.w3.org/1999/xlink" x="0px" y="0px"
	 width="200px" height="200px" viewBox="0 0 200 200" enable-background="new 0 0 200 200" xml:space="preserve">
<g id="Layer_1_1_">
	<g>
		<path fill="#FFFFFF" d="M100,190.5c-49.902,0-90.5-40.599-90.5-90.5C9.5,50.098,50.098,9.5,100,9.5
			c49.901,0,90.5,40.598,90.5,90.5C190.5,149.901,149.901,190.5,100,190.5z"/>
		<path fill="#F5F5F5" d="M100,19c44.664,0,81,36.336,81,81c0,44.664-36.336,81-81,81c-44.664,0-81-36.336-81-81
			C19,55.336,55.336,19,100,19 M100,0C44.771,0,0,44.771,0,100s44.771,100,100,100s100-44.771,100-100S155.229,0,100,0L100,0z"/>
	</g>
	
		<line fill="none" stroke="#FC6E6F" stroke-width="17" stroke-linecap="round" stroke-linejoin="round" stroke-miterlimit="10" x1="78.002" y1="120.236" x2="120.617" y2="77.622"/>
	
		<line fill="none" stroke="#FC6E6F" stroke-width="17" stroke-linecap="round" stroke-linejoin="round" stroke-miterlimit="10" x1="120.617" y1="120.236" x2="78.002" y2="77.622"/>
</g>
</svg>
